<svg width="300" height="370" viewBox="0 0 300 370" fill="none" xmlns="http://www.w3.org/2000/svg">
<rect x="0.5" y="84.5" width="299" height="256" stroke="#5E5E5E"/>
<path d="M2.4 61.176V59.8H0.976V52.232H2.4V50.824H7.136V52.232H8.576V59.8H7.136V61.176H2.4ZM2.864 59.192H6.672V52.824H2.864V59.192ZM11.9469 63.976V62.584H10.5229V60.6H12.4109V61.992H16.2349V59.8H11.9469V58.392H10.5229V55.016H11.9469V53.624H16.6989V55.016H18.1229V62.584H16.6989V63.976H11.9469ZM12.4109 57.8H16.2349V55.608H12.4109V57.8ZM21.1813 63.976V62.584H19.7573V60.6H21.6453V61.992H25.4693V59.8H21.1813V58.392H19.7573V55.016H21.1813V53.624H25.9333V55.016H27.3573V62.584H25.9333V63.976H21.1813ZM21.6453 57.8H25.4693V55.608H21.6453V57.8ZM30.2438 61.176V59.8H28.8198V55.016H30.2438V53.624H34.9798V55.016H36.4198V56.984H34.5158V55.608H30.7078V56.392H33.5718V58.392H30.7078V59.192H34.5158V57.784H36.4198V59.784H34.9798V61.176H30.2438ZM41.1986 61.176V59.8H39.7906V55.608H38.3666V53.624H39.7906V50.824H41.6786V53.624H45.9666V55.608H41.6786V59.192H45.5026V57.8H47.4066V59.8H45.9666V61.176H41.1986ZM51.058 61.176V59.8H49.65V55.608H48.226V53.624H49.65V50.824H51.538V53.624H55.826V55.608H51.538V59.192H55.362V57.8H57.266V59.8H55.826V61.176H51.058ZM60.15 61.176V59.8H58.726V55.016H60.15V53.624H64.886V55.016H66.326V59.8H64.886V61.176H60.15ZM60.614 59.192H64.422V55.608H60.614V59.192ZM68.2729 59.752V57.752H70.1609V59.752H68.2729ZM68.2729 57V55.016H70.1609V57H68.2729Z" fill="#5E5E5E"/>
<line y1="73.5" x2="300" y2="73.5" stroke="#5E5E5E"/>
<path d="M0.976 19.176V10.232H2.4V8.824H4.288V10.232H5.728V13.016H6.672V10.232H8.112V8.824H10.016V10.232H11.424V19.176H9.552V10.824H8.576V13.608H7.136V17.8H5.248V13.608H3.808V10.824H2.864V19.176H0.976ZM13.3823 19.176V11.624H15.2703V19.176H13.3823ZM13.3823 10.824V8.824H15.2703V10.824H13.3823ZM19.5736 19.176V17.8H18.1656V13.608H16.7416V11.624H18.1656V8.824H20.0536V11.624H24.3416V13.608H20.0536V17.192H23.8776V15.8H25.7816V17.8H24.3416V19.176H19.5736ZM29.433 19.176V17.8H28.025V13.608H26.601V11.624H28.025V8.824H29.913V11.624H34.201V13.608H29.913V17.192H33.737V15.8H35.641V17.8H34.201V19.176H29.433ZM38.525 19.176V17.8H37.101V13.016H38.525V11.624H43.261V13.016H44.701V14.984H42.797V13.608H38.989V14.392H41.853V16.392H38.989V17.192H42.797V15.784H44.701V17.784H43.261V19.176H38.525ZM46.6479 19.176V11.624H52.8079V13.016H54.2479V19.176H52.3439V13.608H48.5359V19.176H46.6479ZM58.3861 19.176V17.8H56.9781V13.608H55.5541V11.624H56.9781V8.824H58.8661V11.624H63.1541V13.608H58.8661V17.192H62.6901V15.8H64.5941V17.8H63.1541V19.176H58.3861ZM67.4781 19.176V17.8H66.0541V13.016H67.4781V11.624H72.2141V13.016H73.6541V14.984H71.7501V13.608H67.9421V14.392H70.8061V16.392H67.9421V17.192H71.7501V15.784H73.6541V17.784H72.2141V19.176H67.4781ZM75.601 17.752V15.752H77.489V17.752H75.601ZM75.601 15V13.016H77.489V15H75.601Z" fill="#5E5E5E"/>
<line y1="31.5" x2="300" y2="31.5" stroke="#5E5E5E"/>
<path d="M44.6188 363.176V361.8H43.1948V359.8H45.0828V361.192H48.8908V358.984H44.6188V357.608H43.1948V354.232H44.6188V352.824H49.3548V354.232H50.7948V356.216H48.8908V354.824H45.0828V357.016H49.3548V358.392H50.7948V361.8H49.3548V363.176H44.6188ZM52.7416 363.176V354.232H54.1656V352.824H58.9016V354.232H60.3416V358.984H58.9016V360.392H54.6296V363.176H52.7416ZM54.6296 358.392H58.4376V354.824H54.6296V358.392ZM61.8041 363.176V355.624H63.2281V354.232H64.6361V352.824H66.5561V354.232H67.9641V355.624H69.4041V363.176H67.5001V360.392H63.6921V363.176H61.8041ZM63.6921 358.392H67.5001V356.216H66.0761V354.824H65.1161V356.216H63.6921V358.392ZM71.351 363.176V354.232H72.775V352.824H74.663V354.232H76.103V357.016H77.047V354.232H78.487V352.824H80.391V354.232H81.799V363.176H79.927V354.824H78.951V357.608H77.511V361.8H75.623V357.608H74.183V354.824H73.239V363.176H71.351Z" fill="#B50000"/>
<rect x="0.5" y="346.5" width="124" height="23" stroke="#B50000"/>
<path d="M212.838 363.176V361.8H211.414V359.8H213.302V361.192H217.11V358.984H212.838V357.608H211.414V354.232H212.838V352.824H217.574V354.232H219.014V356.216H217.11V354.824H213.302V357.016H217.574V358.392H219.014V361.8H217.574V363.176H212.838ZM220.96 363.176V361.192H222.384V354.824H220.96V352.824H225.712V354.824H224.272V361.192H225.712V363.176H220.96ZM228.775 363.176V361.8H227.351V354.232H228.775V352.824H233.511V354.232H234.951V357.608H233.047V354.824H229.239V361.192H233.047V358.392H234.951V361.8H233.511V363.176H228.775ZM238.322 363.176V361.8H236.898V352.824H238.786V361.192H242.594V352.824H244.498V361.8H243.058V363.176H238.322ZM246.445 363.176V354.232H247.869V352.824H252.605V354.232H254.045V358.984H252.605V360.392H251.917V361.192H253.325V363.176H251.453V361.8H249.997V360.392H248.333V363.176H246.445ZM248.333 358.392H252.141V354.824H248.333V358.392ZM255.992 363.176V355.624H257.416V354.232H258.824V352.824H260.744V354.232H262.152V355.624H263.592V363.176H261.688V360.392H257.88V363.176H255.992ZM257.88 358.392H261.688V356.216H260.264V354.824H259.304V356.216H257.88V358.392Z" fill="#199700"/>
<rect x="175.5" y="346.5" width="124" height="23" stroke="#199700"/>
</svg>
